<?xml version="1.0" encoding="UTF-8"?>
<svg xmlns="http://www.w3.org/2000/svg" xmlns:xlink="http://www.w3.org/1999/xlink" viewBox="0 0 48 48" width="48px" height="48px">
<g id="surface45973787">
<path style=" stroke:none;fill-rule:nonzero;fill:rgb(100%,100%,100%);fill-opacity:1;" d="M 7.527344 35.25 C 8.453125 35.273438 9.378906 35.292969 10.300781 35.316406 C 10.046875 36.628906 9.789062 37.941406 9.53125 39.25 C 10.71875 38.722656 11.183594 38.972656 12.253906 38.234375 C 12.382812 39.128906 12.578125 39.746094 12.703125 40.53125 C 15.132812 39.429688 17.246094 36.582031 18.332031 34.144531 C 17.210938 32.519531 15.816406 31.078125 14.226562 29.90625 C 13.644531 29.472656 12.46875 28.671875 11.707031 29.105469 C 11.152344 29.421875 11.03125 30.480469 10.804688 31.015625 C 10.441406 31.855469 8.03125 35.261719 7.527344 35.25 Z M 7.527344 35.25 "/>
<path style=" stroke:none;fill-rule:nonzero;fill:rgb(0.392157%,0.392157%,0.392157%);fill-opacity:1;" d="M 12.703125 41.03125 C 12.621094 41.03125 12.539062 41.011719 12.464844 40.972656 C 12.328125 40.898438 12.234375 40.761719 12.207031 40.609375 C 12.152344 40.261719 12.082031 39.945312 12.011719 39.621094 C 11.96875 39.429688 11.925781 39.230469 11.886719 39.027344 C 11.5 39.207031 11.171875 39.28125 10.855469 39.355469 C 10.527344 39.429688 10.1875 39.507812 9.734375 39.707031 C 9.5625 39.78125 9.363281 39.757812 9.21875 39.640625 C 9.074219 39.527344 9.003906 39.339844 9.039062 39.15625 L 9.695312 35.800781 L 7.511719 35.746094 C 7.238281 35.742188 7.019531 35.511719 7.027344 35.234375 C 7.03125 34.996094 7.203125 34.800781 7.429688 34.757812 C 7.957031 34.425781 10.003906 31.605469 10.34375 30.816406 C 10.402344 30.679688 10.449219 30.503906 10.503906 30.316406 C 10.675781 29.726562 10.886719 28.996094 11.460938 28.671875 C 12.558594 28.046875 14.035156 29.144531 14.523438 29.5 C 16.164062 30.714844 17.582031 32.179688 18.742188 33.859375 C 18.84375 34.003906 18.859375 34.1875 18.789062 34.347656 C 17.765625 36.640625 15.613281 39.757812 12.910156 40.984375 C 12.84375 41.019531 12.773438 41.03125 12.703125 41.03125 Z M 12.253906 37.734375 C 12.324219 37.734375 12.390625 37.746094 12.453125 37.777344 C 12.613281 37.84375 12.726562 37.992188 12.75 38.164062 C 12.816406 38.632812 12.902344 39.023438 12.988281 39.40625 C 13.015625 39.53125 13.042969 39.652344 13.070312 39.777344 C 15.046875 38.617188 16.789062 36.253906 17.757812 34.199219 C 16.691406 32.707031 15.402344 31.398438 13.929688 30.308594 C 12.671875 29.378906 12.152344 29.429688 11.953125 29.539062 C 11.734375 29.664062 11.578125 30.203125 11.464844 30.59375 C 11.398438 30.824219 11.335938 31.042969 11.261719 31.214844 C 11.15625 31.460938 9.90625 33.523438 8.804688 34.777344 L 10.3125 34.816406 C 10.460938 34.820312 10.597656 34.886719 10.691406 35.003906 C 10.785156 35.117188 10.820312 35.269531 10.792969 35.410156 L 10.1875 38.484375 C 10.347656 38.441406 10.492188 38.410156 10.628906 38.378906 C 11.074219 38.277344 11.425781 38.195312 11.96875 37.820312 C 12.054688 37.765625 12.15625 37.734375 12.253906 37.734375 Z M 12.253906 37.734375 "/>
<path style=" stroke:none;fill-rule:nonzero;fill:rgb(100%,100%,100%);fill-opacity:1;" d="M 34.546875 40.03125 C 34.421875 39.050781 34.519531 38.042969 34.824219 37.101562 C 35.613281 38.566406 37.035156 39.679688 38.648438 40.09375 C 38.648438 38.753906 38.644531 37.414062 38.644531 36.074219 C 39.199219 36.636719 40 36.941406 40.789062 36.894531 C 39.488281 34.039062 38.191406 31.1875 36.894531 28.335938 C 36.847656 28.226562 36.78125 28.105469 36.664062 28.082031 C 36.542969 28.058594 36.4375 28.15625 36.351562 28.242188 C 35.046875 29.59375 33.929688 31.121094 33.035156 32.773438 C 32.710938 33.378906 32.375 34.039062 31.859375 34.515625 C 31.683594 34.679688 31.011719 34.910156 30.925781 35.054688 C 30.769531 35.324219 31.105469 35.742188 31.265625 36.027344 C 32.117188 37.539062 33.226562 38.902344 34.546875 40.03125 Z M 34.546875 40.03125 "/>
<path style=" stroke:none;fill-rule:nonzero;fill:rgb(0.392157%,0.392157%,0.392157%);fill-opacity:1;" d="M 38.648438 40.597656 C 38.605469 40.597656 38.5625 40.589844 38.523438 40.578125 C 37.171875 40.234375 35.933594 39.425781 35.050781 38.339844 C 34.976562 38.878906 34.972656 39.429688 35.039062 39.96875 C 35.066406 40.175781 34.964844 40.375 34.78125 40.472656 C 34.597656 40.570312 34.375 40.546875 34.21875 40.410156 C 32.855469 39.242188 31.714844 37.847656 30.828125 36.273438 L 30.734375 36.121094 C 30.527344 35.789062 30.210938 35.285156 30.492188 34.804688 C 30.613281 34.59375 30.851562 34.480469 31.179688 34.324219 C 31.289062 34.269531 31.476562 34.179688 31.523438 34.140625 C 31.933594 33.765625 32.230469 33.210938 32.519531 32.675781 L 32.59375 32.539062 C 33.507812 30.84375 34.652344 29.28125 35.988281 27.898438 C 36.078125 27.804688 36.355469 27.511719 36.753906 27.59375 C 37.136719 27.664062 37.289062 28.003906 37.347656 28.128906 L 41.242188 36.6875 C 41.308594 36.839844 41.300781 37.011719 41.214844 37.152344 C 41.128906 37.292969 40.980469 37.382812 40.816406 37.394531 C 40.238281 37.429688 39.660156 37.304688 39.144531 37.046875 L 39.148438 40.09375 C 39.148438 40.25 39.074219 40.394531 38.953125 40.488281 C 38.863281 40.558594 38.757812 40.597656 38.648438 40.597656 Z M 34.824219 36.601562 C 35.007812 36.601562 35.175781 36.703125 35.261719 36.867188 C 35.882812 38.015625 36.929688 38.929688 38.144531 39.410156 L 38.144531 36.074219 C 38.144531 35.871094 38.265625 35.6875 38.453125 35.613281 C 38.640625 35.535156 38.859375 35.578125 39 35.722656 C 39.265625 35.996094 39.605469 36.195312 39.96875 36.304688 L 36.542969 28.773438 C 35.320312 30.074219 34.300781 31.488281 33.476562 33.015625 L 33.402344 33.152344 C 33.089844 33.730469 32.734375 34.390625 32.199219 34.882812 C 32.058594 35.011719 31.855469 35.109375 31.613281 35.222656 C 31.5625 35.25 31.488281 35.285156 31.425781 35.316406 C 31.472656 35.40625 31.542969 35.523438 31.585938 35.59375 L 31.703125 35.785156 C 32.335938 36.910156 33.105469 37.933594 34.003906 38.84375 C 34.035156 38.199219 34.148438 37.558594 34.347656 36.949219 C 34.410156 36.757812 34.578125 36.621094 34.78125 36.605469 C 34.792969 36.605469 34.808594 36.601562 34.824219 36.601562 Z M 34.824219 36.601562 "/>
<path style=" stroke:none;fill-rule:nonzero;fill:rgb(98.823529%,74.901962%,58.431375%);fill-opacity:1;" d="M 10.191406 33.527344 C 9.238281 32.3125 8.441406 30.972656 7.828125 29.554688 C 7.394531 28.550781 7.050781 27.492188 7.035156 26.398438 C 7.015625 25.308594 7.359375 24.179688 8.136719 23.414062 C 8.914062 22.648438 10.164062 22.332031 11.144531 22.804688 C 11.996094 23.21875 12.507812 24.105469 12.859375 24.980469 C 13.867188 27.460938 14.050781 30.265625 13.375 32.855469 C 13.28125 33.21875 13.160156 33.59375 12.882812 33.84375 C 12.328125 34.347656 11.296875 34.851562 10.191406 33.527344 Z M 10.191406 33.527344 "/>
<path style=" stroke:none;fill-rule:nonzero;fill:rgb(0.392157%,0.392157%,0.392157%);fill-opacity:1;" d="M 11.679688 34.871094 C 11.636719 34.871094 11.59375 34.871094 11.546875 34.867188 C 10.925781 34.824219 10.339844 34.484375 9.808594 33.847656 L 9.800781 33.835938 C 8.816406 32.582031 7.996094 31.207031 7.367188 29.75 C 6.8125 28.46875 6.550781 27.40625 6.535156 26.40625 C 6.511719 25.082031 6.96875 23.859375 7.785156 23.058594 C 8.761719 22.097656 10.234375 21.808594 11.363281 22.355469 C 12.445312 22.878906 13.003906 23.996094 13.324219 24.792969 C 14.371094 27.378906 14.5625 30.285156 13.859375 32.980469 C 13.742188 33.421875 13.585938 33.878906 13.21875 34.214844 C 12.882812 34.519531 12.351562 34.871094 11.679688 34.871094 Z M 10.582031 33.214844 C 10.929688 33.628906 11.273438 33.847656 11.613281 33.871094 C 11.992188 33.890625 12.332031 33.671875 12.546875 33.476562 C 12.710938 33.324219 12.804688 33.066406 12.890625 32.730469 C 13.539062 30.238281 13.367188 27.554688 12.398438 25.167969 C 11.984375 24.148438 11.515625 23.539062 10.929688 23.253906 C 10.183594 22.894531 9.15625 23.109375 8.488281 23.769531 C 7.863281 24.382812 7.519531 25.339844 7.535156 26.390625 C 7.546875 27.257812 7.785156 28.195312 8.285156 29.355469 C 8.878906 30.730469 9.652344 32.03125 10.582031 33.214844 Z M 10.582031 33.214844 "/>
<path style=" stroke:none;fill-rule:nonzero;fill:rgb(98.823529%,74.901962%,58.431375%);fill-opacity:1;" d="M 38.636719 34.230469 C 38.171875 34.632812 37.566406 35.03125 36.988281 34.824219 C 36.433594 34.628906 36.199219 33.976562 36.113281 33.390625 C 35.828125 31.484375 36.414062 29.75 36.992188 27.964844 C 37.347656 26.855469 37.601562 25.261719 38.539062 24.457031 C 39.511719 23.621094 41.152344 23.953125 41.90625 24.929688 C 42.875 26.179688 42.511719 28.140625 42.027344 29.503906 C 41.375 31.355469 40.109375 32.960938 38.636719 34.230469 Z M 38.636719 34.230469 "/>
<path style=" stroke:none;fill-rule:nonzero;fill:rgb(0.392157%,0.392157%,0.392157%);fill-opacity:1;" d="M 37.316406 35.382812 C 37.152344 35.382812 36.988281 35.359375 36.820312 35.300781 C 36.179688 35.070312 35.761719 34.4375 35.617188 33.46875 C 35.324219 31.496094 35.90625 29.695312 36.46875 27.953125 L 36.515625 27.8125 C 36.589844 27.585938 36.65625 27.339844 36.726562 27.085938 C 37.023438 26.019531 37.359375 24.8125 38.214844 24.078125 C 38.738281 23.628906 39.449219 23.421875 40.203125 23.5 C 41.039062 23.585938 41.824219 24.007812 42.304688 24.628906 C 43.488281 26.160156 42.9375 28.445312 42.5 29.671875 C 41.871094 31.445312 40.648438 33.152344 38.964844 34.609375 C 38.722656 34.820312 38.074219 35.382812 37.316406 35.382812 Z M 39.894531 24.484375 C 39.496094 24.484375 39.132812 24.605469 38.863281 24.839844 C 38.238281 25.371094 37.949219 26.421875 37.691406 27.351562 C 37.617188 27.621094 37.546875 27.882812 37.46875 28.121094 L 37.421875 28.261719 C 36.867188 29.96875 36.347656 31.578125 36.605469 33.320312 C 36.648438 33.589844 36.78125 34.222656 37.15625 34.355469 C 37.429688 34.453125 37.816406 34.285156 38.3125 33.855469 C 39.863281 32.511719 40.988281 30.949219 41.558594 29.339844 C 41.855469 28.503906 42.441406 26.4375 41.511719 25.238281 C 41.199219 24.835938 40.660156 24.550781 40.105469 24.492188 C 40.03125 24.488281 39.964844 24.484375 39.894531 24.484375 Z M 39.894531 24.484375 "/>
<path style=" stroke:none;fill-rule:nonzero;fill:rgb(98.823529%,74.901962%,58.431375%);fill-opacity:1;" d="M 13.308594 36.636719 C 16.394531 41.9375 21.066406 45.5 24.5 45.5 C 27.5 45.5 35.734375 40.285156 37.148438 34.628906 C 38.148438 30.628906 40.074219 23.28125 38.609375 19.554688 C 36.5 14.191406 30.496094 10.925781 24.742188 11.195312 C 20.496094 11.390625 12.414062 14.199219 11.042969 18.847656 C 10.433594 20.917969 10.921875 24.101562 10.925781 26.246094 C 10.929688 29.613281 11.601562 33.710938 13.308594 36.636719 Z M 13.308594 36.636719 "/>
<path style=" stroke:none;fill-rule:nonzero;fill:rgb(0.392157%,0.392157%,0.392157%);fill-opacity:1;" d="M 24.5 46 C 20.78125 46 16.003906 42.253906 12.878906 36.890625 C 11.347656 34.265625 10.433594 30.285156 10.425781 26.246094 C 10.425781 25.632812 10.382812 24.929688 10.339844 24.195312 C 10.230469 22.347656 10.105469 20.257812 10.5625 18.707031 C 12.027344 13.746094 20.425781 10.894531 24.71875 10.695312 C 30.945312 10.402344 36.984375 14.050781 39.074219 19.371094 C 40.550781 23.121094 38.789062 30.144531 37.738281 34.339844 L 37.632812 34.75 C 36.179688 40.5625 27.722656 46 24.5 46 Z M 13.738281 36.386719 C 16.648438 41.378906 21.175781 45 24.5 45 C 27.171875 45 35.285156 40.011719 36.664062 34.507812 L 36.769531 34.09375 C 37.789062 30.015625 39.5 23.191406 38.144531 19.738281 C 36.203125 14.804688 30.585938 11.421875 24.765625 11.695312 C 20.839844 11.878906 12.835938 14.546875 11.523438 18.988281 C 11.113281 20.375 11.234375 22.371094 11.335938 24.136719 C 11.382812 24.890625 11.425781 25.613281 11.425781 26.246094 C 11.433594 30.117188 12.296875 33.910156 13.738281 36.386719 Z M 13.738281 36.386719 "/>
<path style=" stroke:none;fill-rule:nonzero;fill:rgb(100%,100%,100%);fill-opacity:1;" d="M 18.863281 17.011719 C 14.921875 20.015625 12.398438 23.554688 12.0625 28.5 C 10.625 26.058594 10.820312 24.308594 10.246094 22.085938 C 9.191406 21.703125 7.46875 22.53125 5.042969 23.617188 C 5.746094 20.425781 6.648438 18.492188 8.761719 16.339844 C 7.324219 15.046875 5.75 12.039062 6.453125 9.136719 C 8.402344 11.222656 11.644531 11.992188 14.324219 11 C 11.859375 9.742188 11.46875 8.09375 11.535156 5.328125 C 15.679688 8.039062 17.503906 6.484375 22.453125 6.527344 C 21.941406 4.984375 22.019531 5.1875 21.496094 3.175781 C 23.3125 3.796875 24.941406 4.371094 26.5 5.859375 C 27.765625 4.179688 29.871094 2.503906 33.464844 2.121094 C 32.21875 3.75 31.9375 5.433594 32.027344 6.71875 C 35.089844 6.957031 41.265625 9.636719 42.941406 12.09375 C 41.539062 12.609375 40.140625 13.121094 38.738281 13.636719 C 40.457031 15.910156 42.648438 17.824219 45.132812 19.222656 C 43.023438 20.054688 42.257812 20.3125 40.023438 19.929688 C 40.355469 23.042969 39.945312 26.097656 38.652344 28.925781 C 38.304688 26.101562 36.382812 21.511719 34.371094 18.828125 C 34.582031 19.800781 33.703125 22.816406 33.910156 23.789062 C 32.359375 21.84375 29.894531 19.53125 28.339844 17.585938 C 28.703125 19.300781 28.648438 21.996094 29.011719 23.710938 C 28.0625 22.84375 27.28125 22.761719 26.328125 21.894531 C 26.71875 24.726562 26.804688 24.515625 27.191406 27.351562 C 18.453125 23.03125 18.863281 17.011719 18.863281 17.011719 Z M 18.863281 17.011719 "/>
<path style=" stroke:none;fill-rule:nonzero;fill:rgb(0.392157%,0.392157%,0.392157%);fill-opacity:1;" d="M 38.652344 29.425781 C 38.628906 29.425781 38.601562 29.425781 38.578125 29.421875 C 38.355469 29.386719 38.183594 29.210938 38.15625 28.988281 C 37.863281 26.613281 36.417969 22.964844 34.800781 20.351562 C 34.753906 20.683594 34.695312 21.035156 34.632812 21.394531 C 34.484375 22.285156 34.316406 23.292969 34.398438 23.6875 C 34.449219 23.914062 34.335938 24.144531 34.125 24.242188 C 33.917969 24.34375 33.664062 24.285156 33.519531 24.101562 C 32.757812 23.144531 31.742188 22.070312 30.761719 21.03125 C 30.191406 20.425781 29.609375 19.808594 29.066406 19.203125 C 29.109375 19.667969 29.144531 20.144531 29.175781 20.613281 C 29.25 21.679688 29.328125 22.785156 29.5 23.609375 C 29.546875 23.820312 29.449219 24.039062 29.261719 24.148438 C 29.070312 24.253906 28.835938 24.226562 28.675781 24.082031 C 28.242188 23.6875 27.847656 23.472656 27.429688 23.242188 C 27.285156 23.164062 27.144531 23.085938 26.992188 22.996094 C 27.097656 23.660156 27.175781 24.097656 27.253906 24.535156 C 27.371094 25.195312 27.492188 25.855469 27.6875 27.285156 C 27.714844 27.46875 27.636719 27.648438 27.484375 27.757812 C 27.335938 27.863281 27.136719 27.882812 26.972656 27.800781 C 20.09375 24.398438 18.691406 19.972656 18.421875 18 C 14.710938 21.054688 12.84375 24.421875 12.5625 28.535156 C 12.550781 28.753906 12.394531 28.9375 12.179688 28.988281 C 11.96875 29.042969 11.742188 28.945312 11.632812 28.757812 C 10.597656 26.996094 10.363281 25.546875 10.140625 24.148438 C 10.054688 23.617188 9.964844 23.070312 9.832031 22.503906 C 8.960938 22.398438 7.503906 23.0625 5.683594 23.882812 L 5.246094 24.074219 C 5.074219 24.152344 4.875 24.128906 4.726562 24.007812 C 4.582031 23.886719 4.515625 23.695312 4.554688 23.511719 C 5.265625 20.28125 6.203125 18.347656 8.058594 16.351562 C 6.507812 14.699219 5.3125 11.730469 5.96875 9.019531 C 6.011719 8.839844 6.148438 8.699219 6.324219 8.652344 C 6.503906 8.605469 6.691406 8.660156 6.816406 8.792969 C 8.382812 10.46875 10.824219 11.230469 13.074219 10.824219 C 11.308594 9.53125 10.976562 7.820312 11.035156 5.316406 C 11.042969 5.136719 11.144531 4.972656 11.304688 4.886719 C 11.464844 4.804688 11.660156 4.8125 11.8125 4.910156 C 14.558594 6.707031 16.183594 6.53125 18.640625 6.265625 C 19.550781 6.164062 20.5625 6.054688 21.765625 6.03125 C 21.539062 5.332031 21.472656 5.078125 21.257812 4.253906 L 21.011719 3.300781 C 20.964844 3.121094 21.019531 2.933594 21.15625 2.808594 C 21.292969 2.683594 21.484375 2.644531 21.65625 2.699219 C 23.25 3.246094 24.890625 3.808594 26.4375 5.132812 C 28.136719 3.117188 30.476562 1.9375 33.410156 1.625 C 33.609375 1.601562 33.800781 1.703125 33.898438 1.878906 C 33.996094 2.050781 33.980469 2.265625 33.859375 2.425781 C 32.777344 3.839844 32.511719 5.238281 32.511719 6.269531 C 35.695312 6.703125 41.601562 9.238281 43.355469 11.8125 C 43.441406 11.941406 43.464844 12.101562 43.417969 12.246094 C 43.371094 12.394531 43.257812 12.511719 43.113281 12.566406 L 39.554688 13.867188 C 41.160156 15.847656 43.160156 17.539062 45.378906 18.785156 C 45.546875 18.882812 45.644531 19.0625 45.632812 19.257812 C 45.617188 19.449219 45.496094 19.617188 45.316406 19.6875 C 43.351562 20.460938 42.449219 20.761719 40.578125 20.519531 C 40.8125 23.59375 40.316406 26.488281 39.109375 29.132812 C 39.023438 29.3125 38.847656 29.425781 38.652344 29.425781 Z M 34.371094 18.328125 C 34.523438 18.328125 34.675781 18.402344 34.773438 18.53125 C 36.457031 20.777344 38.085938 24.316406 38.8125 27.15625 C 39.558594 24.921875 39.796875 22.515625 39.523438 19.984375 C 39.507812 19.828125 39.5625 19.671875 39.679688 19.566406 C 39.792969 19.457031 39.953125 19.410156 40.105469 19.4375 C 41.84375 19.734375 42.574219 19.644531 43.992188 19.125 C 41.820312 17.757812 39.882812 15.980469 38.339844 13.9375 C 38.242188 13.8125 38.214844 13.644531 38.257812 13.496094 C 38.304688 13.34375 38.417969 13.222656 38.566406 13.167969 L 42.113281 11.867188 C 40.132812 9.769531 34.820312 7.4375 31.988281 7.21875 C 31.738281 7.195312 31.546875 7 31.527344 6.753906 C 31.457031 5.742188 31.582031 4.304688 32.429688 2.785156 C 30.097656 3.25 28.238281 4.382812 26.898438 6.164062 C 26.8125 6.277344 26.679688 6.347656 26.539062 6.359375 C 26.394531 6.367188 26.257812 6.320312 26.152344 6.222656 C 24.910156 5.035156 23.59375 4.449219 22.214844 3.953125 L 22.226562 4.003906 C 22.496094 5.035156 22.523438 5.144531 22.925781 6.367188 C 22.976562 6.523438 22.949219 6.691406 22.855469 6.820312 C 22.761719 6.949219 22.613281 7.027344 22.453125 7.027344 C 22.382812 7.03125 22.320312 7.023438 22.257812 7.023438 C 20.886719 7.023438 19.753906 7.148438 18.746094 7.257812 C 16.484375 7.503906 14.65625 7.703125 12.035156 6.21875 C 12.078125 8.339844 12.578125 9.546875 14.554688 10.554688 C 14.730469 10.644531 14.835938 10.832031 14.824219 11.03125 C 14.8125 11.226562 14.683594 11.402344 14.5 11.46875 C 11.941406 12.414062 8.90625 11.859375 6.800781 10.140625 C 6.613281 12.558594 7.945312 14.933594 9.097656 15.96875 C 9.199219 16.058594 9.257812 16.1875 9.261719 16.324219 C 9.265625 16.460938 9.214844 16.59375 9.117188 16.6875 C 7.359375 18.480469 6.449219 20.089844 5.765625 22.746094 C 7.8125 21.832031 9.320312 21.214844 10.414062 21.617188 C 10.570312 21.671875 10.6875 21.800781 10.730469 21.960938 C 10.914062 22.679688 11.019531 23.34375 11.125 23.984375 C 11.273438 24.902344 11.414062 25.785156 11.773438 26.746094 C 12.472656 22.839844 14.660156 19.585938 18.558594 16.613281 C 18.710938 16.492188 18.921875 16.476562 19.097656 16.570312 C 19.269531 16.660156 19.371094 16.847656 19.359375 17.042969 C 19.347656 17.265625 19.132812 22.414062 26.558594 26.460938 C 26.441406 25.671875 26.355469 25.191406 26.269531 24.710938 C 26.148438 24.050781 26.027344 23.386719 25.835938 21.960938 C 25.804688 21.753906 25.910156 21.546875 26.097656 21.449219 C 26.28125 21.351562 26.511719 21.382812 26.667969 21.523438 C 27.097656 21.917969 27.492188 22.136719 27.910156 22.363281 C 28.050781 22.441406 28.191406 22.519531 28.335938 22.601562 C 28.265625 21.988281 28.222656 21.328125 28.175781 20.683594 C 28.101562 19.613281 28.023438 18.511719 27.851562 17.6875 C 27.804688 17.460938 27.917969 17.230469 28.128906 17.132812 C 28.335938 17.03125 28.585938 17.089844 28.730469 17.273438 C 29.492188 18.230469 30.507812 19.304688 31.488281 20.34375 C 32.15625 21.050781 32.835938 21.773438 33.453125 22.472656 C 33.503906 22.082031 33.574219 21.660156 33.648438 21.226562 C 33.796875 20.335938 33.964844 19.324219 33.882812 18.933594 C 33.832031 18.703125 33.949219 18.46875 34.160156 18.371094 C 34.230469 18.34375 34.300781 18.328125 34.371094 18.328125 Z M 34.371094 18.328125 "/>
<path style=" stroke:none;fill-rule:nonzero;fill:rgb(0.392157%,0.392157%,0.392157%);fill-opacity:1;" d="M 22.105469 29.023438 C 21.929688 29.023438 21.761719 28.929688 21.667969 28.769531 C 21.144531 27.839844 20.234375 27.066406 19.175781 26.652344 C 18.105469 26.230469 16.84375 26.15625 15.71875 26.453125 C 15.441406 26.523438 15.175781 26.359375 15.105469 26.09375 C 15.039062 25.824219 15.199219 25.554688 15.464844 25.484375 C 16.8125 25.136719 18.257812 25.21875 19.539062 25.71875 C 20.828125 26.226562 21.894531 27.132812 22.539062 28.277344 C 22.675781 28.519531 22.589844 28.824219 22.351562 28.960938 C 22.273438 29.003906 22.1875 29.023438 22.105469 29.023438 Z M 22.105469 29.023438 "/>
<path style=" stroke:none;fill-rule:nonzero;fill:rgb(77.254903%,39.607844%,15.686275%);fill-opacity:1;" d="M 16.828125 27.457031 C 16.757812 28.097656 17.101562 28.742188 17.621094 29.121094 C 17.992188 29.390625 18.457031 29.542969 18.914062 29.511719 C 19.371094 29.476562 19.820312 29.25 20.09375 28.878906 C 20.515625 28.300781 20.445312 27.449219 20.015625 26.882812 C 19.148438 25.738281 17.019531 25.761719 16.828125 27.457031 Z M 16.828125 27.457031 "/>
<path style=" stroke:none;fill-rule:nonzero;fill:rgb(0.392157%,0.392157%,0.392157%);fill-opacity:1;" d="M 18.78125 30.015625 C 18.273438 30.015625 17.761719 29.84375 17.324219 29.523438 C 16.636719 29.019531 16.246094 28.1875 16.332031 27.402344 C 16.429688 26.539062 16.964844 25.894531 17.765625 25.675781 C 18.722656 25.410156 19.808594 25.78125 20.414062 26.578125 C 20.996094 27.351562 21.03125 28.441406 20.496094 29.175781 C 20.148438 29.652344 19.570312 29.960938 18.953125 30.007812 C 18.894531 30.011719 18.839844 30.015625 18.78125 30.015625 Z M 17.328125 27.511719 C 17.277344 27.941406 17.515625 28.425781 17.914062 28.71875 C 18.203125 28.929688 18.554688 29.042969 18.878906 29.011719 C 19.203125 28.988281 19.511719 28.824219 19.6875 28.582031 C 19.960938 28.210938 19.929688 27.597656 19.617188 27.183594 C 19.265625 26.722656 18.585938 26.484375 18.03125 26.640625 C 17.746094 26.71875 17.394531 26.933594 17.328125 27.511719 Z M 17.328125 27.511719 "/>
<path style=" stroke:none;fill-rule:nonzero;fill:rgb(0.392157%,0.392157%,0.392157%);fill-opacity:1;" d="M 18.566406 28.421875 C 18.4375 28.421875 18.308594 28.386719 18.191406 28.3125 C 17.988281 28.183594 17.863281 27.96875 17.863281 27.734375 C 17.863281 27.503906 17.988281 27.285156 18.191406 27.15625 C 18.398438 27.027344 18.644531 27.011719 18.855469 27.113281 C 19.09375 27.226562 19.253906 27.480469 19.269531 27.765625 C 19.28125 27.929688 19.210938 28.089844 19.082031 28.191406 C 19.0625 28.207031 19.039062 28.222656 19.015625 28.234375 C 18.972656 28.285156 18.917969 28.328125 18.855469 28.355469 C 18.765625 28.398438 18.664062 28.421875 18.566406 28.421875 Z M 18.566406 28.421875 "/>
<path style=" stroke:none;fill-rule:nonzero;fill:rgb(0.392157%,0.392157%,0.392157%);fill-opacity:1;" d="M 28.433594 28.335938 C 28.316406 28.335938 28.199219 28.296875 28.105469 28.210938 C 27.898438 28.027344 27.878906 27.714844 28.058594 27.507812 C 28.925781 26.519531 30.15625 25.851562 31.523438 25.621094 C 32.875 25.390625 34.3125 25.609375 35.558594 26.230469 C 35.804688 26.351562 35.90625 26.652344 35.78125 26.898438 C 35.660156 27.148438 35.359375 27.25 35.113281 27.125 C 34.070312 26.605469 32.820312 26.417969 31.6875 26.609375 C 30.566406 26.796875 29.515625 27.363281 28.808594 28.164062 C 28.710938 28.277344 28.574219 28.335938 28.433594 28.335938 Z M 28.433594 28.335938 "/>
<path style=" stroke:none;fill-rule:nonzero;fill:rgb(77.254903%,39.607844%,15.686275%);fill-opacity:1;" d="M 33.816406 27.878906 C 33.753906 28.519531 33.285156 29.078125 32.699219 29.34375 C 32.28125 29.535156 31.796875 29.585938 31.351562 29.460938 C 30.910156 29.332031 30.519531 29.015625 30.332031 28.597656 C 30.035156 27.949219 30.28125 27.128906 30.820312 26.660156 C 31.902344 25.71875 33.980469 26.183594 33.816406 27.878906 Z M 33.816406 27.878906 "/>
<path style=" stroke:none;fill-rule:nonzero;fill:rgb(0.392157%,0.392157%,0.392157%);fill-opacity:1;" d="M 31.859375 30.027344 C 31.640625 30.027344 31.421875 30 31.214844 29.9375 C 30.621094 29.769531 30.121094 29.34375 29.875 28.804688 C 29.5 27.976562 29.761719 26.917969 30.492188 26.28125 C 31.234375 25.636719 32.398438 25.496094 33.265625 25.941406 C 34.003906 26.324219 34.394531 27.0625 34.3125 27.925781 C 34.238281 28.710938 33.683594 29.445312 32.902344 29.800781 C 32.566406 29.953125 32.210938 30.027344 31.859375 30.027344 Z M 32.15625 26.683594 C 31.789062 26.683594 31.417969 26.804688 31.148438 27.039062 C 30.753906 27.378906 30.597656 27.972656 30.785156 28.390625 C 30.910156 28.664062 31.179688 28.886719 31.492188 28.976562 C 31.804688 29.066406 32.167969 29.035156 32.492188 28.886719 C 32.945312 28.683594 33.277344 28.257812 33.316406 27.828125 C 33.375 27.25 33.070312 26.964844 32.808594 26.828125 C 32.613281 26.730469 32.386719 26.683594 32.15625 26.683594 Z M 32.15625 26.683594 "/>
<path style=" stroke:none;fill-rule:nonzero;fill:rgb(0.392157%,0.392157%,0.392157%);fill-opacity:1;" d="M 32.058594 28.480469 C 31.910156 28.480469 31.769531 28.433594 31.648438 28.34375 C 31.589844 28.292969 31.539062 28.234375 31.507812 28.171875 C 31.492188 28.15625 31.480469 28.144531 31.46875 28.128906 C 31.363281 28.003906 31.320312 27.835938 31.363281 27.675781 C 31.441406 27.402344 31.648438 27.191406 31.902344 27.125 C 32.132812 27.070312 32.371094 27.136719 32.546875 27.304688 C 32.71875 27.472656 32.796875 27.710938 32.746094 27.9375 C 32.699219 28.164062 32.535156 28.351562 32.308594 28.433594 C 32.226562 28.464844 32.140625 28.480469 32.058594 28.480469 Z M 32.058594 28.480469 "/>
<path style=" stroke:none;fill-rule:nonzero;fill:rgb(0.392157%,0.392157%,0.392157%);fill-opacity:1;" d="M 29.527344 39.019531 C 29.183594 39.019531 28.824219 38.988281 28.441406 38.917969 C 28.054688 38.851562 27.675781 38.757812 27.296875 38.660156 C 26.746094 38.523438 26.230469 38.394531 25.699219 38.347656 C 24.78125 38.261719 23.871094 38.425781 22.90625 38.59375 C 22.539062 38.65625 22.175781 38.722656 21.804688 38.773438 C 19.964844 39.03125 18.574219 38.792969 17.554688 38.046875 C 17.332031 37.882812 17.285156 37.570312 17.445312 37.347656 C 17.609375 37.125 17.925781 37.074219 18.144531 37.238281 C 18.945312 37.824219 20.097656 38 21.667969 37.785156 C 22.023438 37.734375 22.378906 37.671875 22.730469 37.609375 C 23.71875 37.4375 24.746094 37.253906 25.789062 37.351562 C 26.394531 37.40625 26.976562 37.550781 27.535156 37.691406 C 27.894531 37.78125 28.253906 37.871094 28.617188 37.933594 C 29.632812 38.117188 30.433594 38.015625 30.996094 37.632812 C 31.226562 37.480469 31.535156 37.535156 31.691406 37.765625 C 31.84375 37.996094 31.785156 38.304688 31.554688 38.460938 C 31.007812 38.832031 30.324219 39.019531 29.527344 39.019531 Z M 29.527344 39.019531 "/>
<path style=" stroke:none;fill-rule:nonzero;fill:rgb(0.392157%,0.392157%,0.392157%);fill-opacity:1;" d="M 25.605469 33.410156 C 25.347656 33.410156 25.128906 33.210938 25.109375 32.949219 L 25.074219 32.585938 C 24.992188 31.640625 24.894531 30.566406 25.140625 29.355469 C 25.195312 29.085938 25.457031 28.910156 25.730469 28.964844 C 26 29.019531 26.175781 29.285156 26.121094 29.554688 C 25.902344 30.621094 25.992188 31.617188 26.070312 32.496094 L 26.105469 32.867188 C 26.128906 33.140625 25.921875 33.386719 25.648438 33.40625 C 25.632812 33.40625 25.621094 33.410156 25.605469 33.410156 Z M 25.605469 33.410156 "/>
<path style=" stroke:none;fill-rule:nonzero;fill:rgb(0.392157%,0.392157%,0.392157%);fill-opacity:1;" d="M 17.75 30.1875 C 17.128906 30.1875 16.570312 30.125 15.941406 29.957031 C 15.675781 29.886719 15.515625 29.609375 15.589844 29.34375 C 15.660156 29.078125 15.933594 28.921875 16.199219 28.992188 C 17.046875 29.21875 17.765625 29.222656 18.804688 29.140625 C 19.070312 29.113281 19.316406 29.328125 19.339844 29.601562 C 19.359375 29.878906 19.152344 30.117188 18.878906 30.136719 C 18.46875 30.167969 18.097656 30.1875 17.75 30.1875 Z M 17.75 30.1875 "/>
<path style=" stroke:none;fill-rule:nonzero;fill:rgb(0.392157%,0.392157%,0.392157%);fill-opacity:1;" d="M 33.515625 30.253906 C 32.894531 30.253906 32.335938 30.1875 31.707031 30.019531 C 31.441406 29.949219 31.28125 29.675781 31.355469 29.40625 C 31.425781 29.140625 31.707031 28.984375 31.964844 29.054688 C 32.8125 29.28125 33.53125 29.28125 34.566406 29.203125 C 34.839844 29.1875 35.085938 29.390625 35.105469 29.664062 C 35.125 29.9375 34.917969 30.179688 34.644531 30.199219 C 34.230469 30.230469 33.863281 30.253906 33.515625 30.253906 Z M 33.515625 30.253906 "/>
<path style=" stroke:none;fill-rule:nonzero;fill:rgb(0.392157%,0.392157%,0.392157%);fill-opacity:1;" d="M 21.269531 24.398438 C 21.179688 24.398438 21.089844 24.378906 21.007812 24.328125 C 19.75 23.5625 18.414062 22.910156 17.03125 22.398438 C 16.773438 22.300781 16.640625 22.011719 16.738281 21.753906 C 16.835938 21.496094 17.125 21.363281 17.382812 21.460938 C 18.820312 21.996094 20.21875 22.675781 21.527344 23.472656 C 21.765625 23.617188 21.839844 23.925781 21.695312 24.160156 C 21.601562 24.3125 21.4375 24.398438 21.269531 24.398438 Z M 21.269531 24.398438 "/>
<path style=" stroke:none;fill-rule:nonzero;fill:rgb(0.392157%,0.392157%,0.392157%);fill-opacity:1;" d="M 29.347656 24.089844 C 29.152344 24.089844 28.96875 23.976562 28.886719 23.785156 C 28.777344 23.53125 28.898438 23.238281 29.152344 23.128906 C 30.242188 22.664062 31.378906 22.273438 32.523438 21.96875 C 32.792969 21.898438 33.0625 22.058594 33.132812 22.324219 C 33.203125 22.59375 33.046875 22.867188 32.777344 22.9375 C 31.679688 23.226562 30.589844 23.601562 29.542969 24.050781 C 29.480469 24.078125 29.410156 24.089844 29.347656 24.089844 Z M 29.347656 24.089844 "/>
<path style=" stroke:none;fill-rule:nonzero;fill:rgb(0.392157%,0.392157%,0.392157%);fill-opacity:1;" d="M 21.855469 16.898438 C 21.644531 16.898438 21.445312 16.761719 21.378906 16.550781 C 20.914062 15.097656 21.050781 13.484375 21.753906 12.132812 C 22.457031 10.777344 23.691406 9.738281 25.148438 9.277344 C 25.359375 9.214844 25.585938 9.289062 25.710938 9.472656 C 25.835938 9.652344 25.828125 9.894531 25.691406 10.066406 C 24.914062 11.046875 24.675781 12.441406 25.089844 13.621094 C 25.179688 13.882812 25.039062 14.167969 24.78125 14.257812 C 24.523438 14.347656 24.234375 14.210938 24.144531 13.949219 C 23.800781 12.96875 23.8125 11.871094 24.136719 10.882812 C 23.515625 11.320312 22.996094 11.90625 22.640625 12.59375 C 22.058594 13.710938 21.945312 15.042969 22.328125 16.246094 C 22.414062 16.511719 22.269531 16.789062 22.007812 16.875 C 21.957031 16.890625 21.90625 16.898438 21.855469 16.898438 Z M 21.855469 16.898438 "/>
<path style=" stroke:none;fill-rule:nonzero;fill:rgb(0.392157%,0.392157%,0.392157%);fill-opacity:1;" d="M 35.144531 14.804688 C 34.957031 14.804688 34.773438 14.695312 34.691406 14.511719 C 34.070312 13.148438 32.910156 12.066406 31.511719 11.539062 C 31.28125 11.453125 31.152344 11.21875 31.195312 10.980469 C 31.238281 10.742188 31.433594 10.601562 31.691406 10.570312 C 32.449219 10.574219 33.191406 10.707031 33.90625 10.960938 C 34.167969 11.054688 34.304688 11.339844 34.210938 11.597656 C 34.164062 11.726562 34.074219 11.824219 33.964844 11.878906 C 34.652344 12.492188 35.214844 13.25 35.601562 14.09375 C 35.714844 14.347656 35.605469 14.644531 35.355469 14.757812 C 35.285156 14.789062 35.214844 14.804688 35.144531 14.804688 Z M 35.144531 14.804688 "/>
<path style=" stroke:none;fill-rule:nonzero;fill:rgb(0.392157%,0.392157%,0.392157%);fill-opacity:1;" d="M 31.4375 16.894531 C 31.222656 16.894531 31.023438 16.753906 30.957031 16.539062 C 30.722656 15.742188 30.183594 15.03125 29.476562 14.59375 C 29.242188 14.445312 29.167969 14.140625 29.3125 13.90625 C 29.460938 13.671875 29.769531 13.601562 30.003906 13.742188 C 30.914062 14.308594 31.613281 15.226562 31.917969 16.253906 C 31.996094 16.519531 31.84375 16.796875 31.578125 16.875 C 31.53125 16.890625 31.484375 16.894531 31.4375 16.894531 Z M 31.4375 16.894531 "/>
<path style=" stroke:none;fill-rule:nonzero;fill:rgb(0.392157%,0.392157%,0.392157%);fill-opacity:1;" d="M 11.980469 20.148438 C 11.972656 20.148438 11.964844 20.148438 11.957031 20.148438 C 11.683594 20.136719 11.46875 19.902344 11.480469 19.625 C 11.585938 17.304688 12.753906 15.09375 14.617188 13.703125 C 14.835938 13.539062 15.148438 13.585938 15.316406 13.804688 C 15.480469 14.027344 15.433594 14.339844 15.214844 14.507812 C 13.589844 15.714844 12.566406 17.648438 12.476562 19.671875 C 12.464844 19.9375 12.246094 20.148438 11.980469 20.148438 Z M 11.980469 20.148438 "/>
</g>
</svg>
